<svg xmlns="http://www.w3.org/2000/svg" xmlns:xlink="http://www.w3.org/1999/xlink" version="1.1" width="99.2126pt" height="99.2126pt" viewBox="0 0 99.2126 99.2126">
<g id="layer_1" data-name="">
<path transform="matrix(1,0,0,-1,0,99.2126)" d="M49.5326 94.1777C74.1892 94.1777 94.1777 74.1895 94.1777 49.5326 94.1777 24.8757 74.1892 4.8875 49.5326 4.8875 24.876 4.8875 4.8875 24.8757 4.8875 49.5326 4.8875 74.1895 24.876 94.1777 49.5326 94.1777ZM22.8036 64.5214C18.4124 64.6455 16.649 70.5504 20.6501 73.1843 23.0598 74.4863 24.8964 73.281 25.2989 72.9315 25.3704 73.2798 25.3066 73.294 25.3244 73.4511 25.3579 74.0937 26.4115 74.3014 26.5323 73.277 26.5564 72.2565 26.4214 71.682 26.4455 70.662 26.5272 70.1175 25.4937 69.3371 25.196 70.5762 24.7737 73.211 21.4047 72.8881 20.9954 70.8849 20.7541 69.5463 20.8003 68.6288 21.1728 67.358 22.4331 64.6345 24.9491 65.8142 25.3916 68.3042 25.6649 68.7311 26.2604 68.6982 26.6219 68.3464 26.5031 67.4127 26.4764 66.9421 25.7763 65.893 25.1915 65.2533 24.4128 64.4717 22.8036 64.5214ZM43.8307 72.5312C43.5042 71.8736 41.8025 70.854 41.4275 71.3614 41.2543 71.6973 42.1495 72.2449 42.4216 72.8325 43.0016 74.3326 44.1505 73.0877 43.8307 72.5312ZM41.512 68.5363 43.4761 68.5295V68.5789C43.4761 69.0015 43.3911 69.3204 43.223 69.5373 43.0549 69.7541 42.8063 69.8621 42.4789 69.8621 42.175 69.8621 41.9391 69.7496 41.7736 69.5222 41.6078 69.2949 41.5205 68.9655 41.512 68.5363ZM44.0116 66.7888 45.5312 66.795C45.3399 66.047 44.9892 65.4817 44.477 65.1013 43.9628 64.7209 43.2975 64.5316 42.4814 64.5316 41.5142 64.5316 40.7339 64.823 40.1411 65.4029 39.5504 65.9854 39.2547 66.7483 39.2547 67.6962 39.2547 68.7039 39.5396 69.5013 40.1114 70.0832 40.6809 70.668 41.4544 70.9591 42.4301 70.9591 43.4398 70.9591 44.2239 70.6742 44.7871 70.1067 45.3506 69.5373 45.6313 68.7421 45.6313 67.7222V67.4901H41.4865V67.3903C41.4865 66.8375 41.5885 66.4234 41.7946 66.1448 42.0009 65.8684 42.3091 65.7303 42.7212 65.7303 43.0997 65.7303 43.3993 65.8219 43.6224 66.0067 43.8437 66.1893 43.973 66.4506 44.0116 66.7888ZM34.6927 64.5191V65.5948H35.0093C35.2769 65.5948 35.4543 65.641 35.5425 65.732 35.6312 65.8247 35.6757 66.0951 35.6757 66.5467V69.6858H34.6927V70.7879H35.6757V71.1465C35.6757 71.6179 35.7043 71.9722 35.7642 72.2112 35.8214 72.4479 35.9189 72.6517 36.0584 72.8198 36.2755 73.0834 36.5743 73.2915 36.957 73.4417 37.3399 73.5945 37.7629 73.6699 38.2255 73.6699 38.876 73.6699 39.403 73.5327 39.8038 73.2583 40.2043 72.9833 40.4039 72.6296 40.4039 72.1976 40.4039 71.8988 40.3152 71.6598 40.138 71.4762 39.9586 71.2922 39.7284 71.1995 39.4432 71.1995 39.1819 71.1995 38.967 71.2817 38.7947 71.4433 38.6237 71.6049 38.5376 71.8061 38.5376 72.0473 38.5376 72.1911 38.5773 72.3149 38.6572 72.4235 38.7369 72.5323 38.8585 72.6273 39.0226 72.7092 38.9449 72.7245 38.8695 72.7379 38.7986 72.7444 38.7278 72.7509 38.6637 72.7534 38.6042 72.7534 38.3363 72.7534 38.1526 72.6735 38.0486 72.5165 37.9446 72.3594 37.8935 72.0675 37.8935 71.64V70.7879H39.0291V69.6858H37.8935V66.5467C37.8935 66.1037 37.9335 65.8361 38.0151 65.7388 38.0974 65.6433 38.2808 65.5948 38.5642 65.5948H39.0291V64.5191ZM31.3313 67.9564C30.6998 67.6568 29.734 67.3285 29.3973 66.6303 29.1858 66.0594 30.479 66.0112 30.7843 66.3367 31.3072 66.8871 31.3143 67.3194 31.3313 67.9564ZM31.2778 65.5543C31.1669 65.706 31.0484 65.5126 30.9813 65.4267 30.4206 64.2277 28.6866 64.4426 27.9147 65.1438 26.3982 66.522 27.97 68.2614 29.0733 68.3623 29.6884 68.3994 31.1695 68.582 31.4317 69.0851 31.498 69.2118 31.5357 69.3686 31.5408 69.5594 31.5493 69.8712 31.4419 70.1087 31.2236 70.2757 31.0056 70.4432 30.6865 70.528 30.2681 70.5277 29.9971 70.5277 29.7604 70.511 29.5722 70.4367 29.4919 70.3902 29.4324 70.35 29.3409 70.181 29.4741 70.149 29.5461 70.0807 29.6753 69.9727 29.8162 69.8536 29.8797 69.6781 29.8743 69.4599 29.8675 69.2161 29.7822 69.0194 29.6167 68.8708 29.4511 68.72 29.2348 68.646 28.9675 68.646 28.6736 68.646 28.4346 68.7368 28.2504 68.9213 28.0681 69.1058 27.9799 69.3454 27.9879 69.6382 28.0003 70.1101 28.3272 70.6175 28.779 70.9115 29.6898 71.4733 31.7157 71.7046 32.616 70.7743 33.1577 70.215 33.0471 69.7028 32.9992 68.9386L32.8371 66.3392C32.8238 66.1348 32.8708 65.9047 33.1155 65.9047 33.5228 65.9038 33.2277 66.5155 33.2422 66.5759 33.2198 66.9461 34.0036 67.7934 34.4299 66.748 34.867 64.6257 31.998 63.6129 31.2778 65.5543ZM59.8467 63.574C61.1201 63.574 62.301 63.4221 63.2268 63.2733 64.1197 63.0748 63.8447 62.0374 63.1468 61.9872 62.5192 61.9172 62.2531 61.9778 61.7156 61.9778 61.1861 62.0385 60.9528 61.6524 61.8809 61.5736 61.7394 61.2434 69.6226 61.6544 70.8055 61.5169 71.4195 61.4871 71.3676 62.1692 71.4912 62.9266 71.5629 64.4868 73.622 64.0956 73.8604 62.9274 73.9035 62.4557 73.8536 62.0671 73.8947 61.6768 73.8774 61.4429 73.9134 60.9871 74.8049 61.1031 75.867 61.2439 76.3075 60.9182 76.7747 59.9913 77.0343 59.6038 76.7217 59.2064 77.9003 58.9164 78.4037 58.8577 78.3904 58.9751 79.6487 58.86 80.4498 58.8016 81.3796 59.0936 82.4961 57.6238 84.5189 51.7215 80.5881 49.604 79.0047 49.0173 76.6057 47.6912 74.6311 51.014 77.6991 51.4233 80.4424 51.9593 81.0482 55.1605 79.7774 55.6648 78.9514 55.8754 78.0557 56.2561 77.2841 55.2379 75.5011 51.0318 73.6917 48.7457 70.151 46.0604 69.571 45.6352 68.0862 45.6228 66.9447 45.4725 64.6044 45.5253 65.0917 48.1388 66.981 47.903 69.6762 47.6657 72.0448 52.5243 72.5451 53.8634 72.8376 54.9507 73.3972 56.7128 70.7944 55.7742 69.3187 55.3564 63.5386 55.0826 61.7468 55.4437 59.8459 55.7399 58.1539 56.4327 57.7193 56.6011 56.1813 57.1813 56.1631 59.6551 58.2284 58.8716 60.0007 58.1006 61.2434 57.9438 62.7191 57.9067 65.3193 57.691 68.4085 58.0674 70.1167 58.1706 71.3991 58.2483 72.6463 59.5882 69.9072 59.6648 69.4239 59.7835 60.0024 59.2637 59.9173 59.3631 56.3391 59.3836 55.5205 61.2119 55.5205 61.6833 55.5205 62.7273 57.4574 63.574 59.8467 63.574ZM64.9939 71.0042C64.5242 71.0161 64.4547 70.6144 64.0811 70.346 63.3515 69.821 62.365 69.2235 62.2576 68.1296 62.1037 66.5612 63.0541 67.7038 64.6549 64.8859 65.8817 63.174 67.225 65.3797 66.3089 66.5586 66.1788 66.8546 65.2615 66.9767 65.2544 67.2219 64.5429 67.7259 64.8215 68.2143 64.9536 68.5103 65.3434 69.4392 67.0343 70.6788 67.1202 71.3852 67.7341 73.9519 65.3675 74.4576 65.442 72.6114 65.7346 72.1366 65.4324 70.9163 64.9939 71.0042ZM54.0215 49.1176C54.1182 48.2876 54.6769 48.5739 54.915 48.7868 55.0735 49.1153 56.5004 49.4495 56.74 48.5544 56.8216 45.8209 53.7939 43.6544 53.7874 45.6605 53.7965 46.334 53.82 46.4145 53.6397 47.0426 53.5105 47.4225 53.0609 47.8967 52.6728 47.1526 52.6232 46.9071 52.41 46.4984 53.1431 45.8365 53.8911 44.9022 52.187 44.0167 51.4145 45.3076 50.8161 46.7186 50.9769 47.8704 50.9769 48.2221 51.0579 49.6933 53.7579 49.754 54.0215 49.1176ZM76.6267 46.785C77.9851 49.3611 79.7941 47.6521 78.6739 45.4918 75.0691 41.1775 66.4821 39.3718 59.2526 41.5037 52.74 43.8888 57.3474 44.5411 60.2836 43.1906 61.5161 42.3927 72.1341 42.1084 76.6267 46.785ZM28.6282 55.5072C30.9319 51.2994 30.4169 48.2615 31.125 44.3701 31.3203 42.4641 32.8363 44.1918 33.2753 45.5644 34.9007 52.3562 35.5246 54.2109 37.0097 56.8984 38.2759 59.512 43.6003 62.8126 45.4918 55.9735 45.9814 48.2363 46.1622 36.2381 45.633 28.7994 45.4181 26.9453 45.4612 25.5016 46.0157 20.6459 45.777 17.1468 43.2711 20.5328 41.3433 25.6082 39.4455 31.6695 38.5455 40.818 39.369 47.23 39.4418 49.9867 37.4012 49.07 36.9899 47.179 36.7631 45.9967 36.5227 44.8883 36.3804 43.9407 35.9045 41.0431 30.8163 29.4355 26.9524 43.9671 26.7225 45.2795 26.7018 46.3873 26.1417 48.2151 26.2259 48.8458 25.3216 50.1216 24.5877 47.2816 24.5234 46.4051 24.1021 43.6079 24.4559 41.152 24.9032 25.8029 14.4907 28.0083 15.1438 35.4753 15.6492 44.3112 19.55 51.5605 23.5162 56.3046 25.4392 58.6378 27.0048 58.2508 28.6282 55.5072ZM70.0722 28.7402C70.6969 28.6472 70.897 27.4878 70.1323 27.161 69.2765 26.9546 69.2442 25.482 69.8678 25.0824 70.6008 24.656 72.1786 24.5792 72.0502 25.8409 72.0408 26.2276 71.8934 26.5411 71.1805 26.9966 70.9089 27.2064 70.7519 28.5511 71.7109 28.2654 72.6117 27.9493 73.4136 27.4017 73.4754 26.0518 73.4445 24.4395 72.144 22.9836 70.4665 22.9836 68.7883 22.9836 67.3174 24.2643 67.2789 26.0518 67.4237 27.9901 68.8323 28.9953 70.0722 28.7402ZM59.7195 35.064C60.5421 33.5614 60.3581 32.476 60.6112 31.0861 60.681 30.4053 61.2224 31.0226 61.3794 31.513 61.9597 33.9386 62.1825 34.6011 62.7134 35.5612 63.1655 36.4946 65.067 37.6736 65.7428 35.2307 65.9177 32.4675 65.9823 28.1815 65.7933 25.5249 65.7164 24.8624 65.7323 24.3468 65.9299 22.6125 65.8443 21.3625 64.9494 22.572 64.2611 24.385 63.5831 26.5496 63.2616 29.8176 63.5556 32.1077 63.5822 33.0922 62.8526 32.7648 62.706 32.0896 62.6253 31.667 62.5394 31.271 62.4886 30.9331 62.3183 29.8981 60.5007 25.7519 59.1208 30.9421 59.0386 31.411 59.0312 31.8067 58.8317 32.4595 58.8614 32.6852 58.5383 33.1404 58.2761 32.1265 58.2534 31.8129 58.1029 30.814 58.2293 29.9367 58.3889 24.4545 54.6695 25.2422 54.9031 27.9094 55.0834 31.0654 56.4766 33.6543 57.8934 35.3489 58.5808 36.1826 59.1392 36.0442 59.7195 35.064ZM50.4448 28.7402C51.0693 28.6472 51.2694 27.4878 50.5046 27.161 49.6485 26.9546 49.6168 25.482 50.2404 25.0824 50.9734 24.656 52.5509 24.5792 52.4225 25.8409 52.4134 26.2276 52.2658 26.5411 51.5529 26.9966 51.2813 27.2064 51.124 28.5511 52.0829 28.2654 52.9843 27.9493 53.786 27.4017 53.8478 26.0518 53.8166 24.4395 52.5166 22.9836 50.8385 22.9836 49.161 22.9836 47.6895 24.2643 47.6515 26.0518 47.7958 27.9901 49.2049 28.9953 50.4448 28.7402" fill-rule="evenodd"/>
<path transform="matrix(1,0,0,-1,0,99.2126)" d="M49.5326 98.4302C76.538 98.4302 98.4302 76.538 98.4302 49.5326 98.4302 22.5272 76.538 .635 49.5326 .635 22.5272 .635 .635 22.5272 .635 49.5326 .635 76.538 22.5272 98.4302 49.5326 98.4302ZM49.5326 95.9854C75.1878 95.9854 95.9854 75.1878 95.9854 49.5326 95.9854 23.8774 75.1878 3.0798 49.5326 3.0798 23.8774 3.0798 3.0798 23.8774 3.0798 49.5326 3.0798 75.1878 23.8774 95.9854 49.5326 95.9854Z" fill-rule="evenodd"/>
<path transform="matrix(1,0,0,-1,0,99.2126)" stroke-width=".5" stroke-linecap="round" stroke-linejoin="round" fill="none" stroke="#000000" d="M49.5326 98.4302C76.538 98.4302 98.4302 76.538 98.4302 49.5326 98.4302 22.5272 76.538 .635 49.5326 .635 22.5272 .635 .635 22.5272 .635 49.5326 .635 76.538 22.5272 98.4302 49.5326 98.4302ZM49.5326 95.9854C75.1878 95.9854 95.9854 75.1878 95.9854 49.5326 95.9854 23.8774 75.1878 3.0798 49.5326 3.0798 23.8774 3.0798 3.0798 23.8774 3.0798 49.5326 3.0798 75.1878 23.8774 95.9854 49.5326 95.9854Z"/>
</g>
</svg>
